<svg width="1706" height="1706" viewBox="0 0 1706 1706" fill="none" xmlns="http://www.w3.org/2000/svg">
<path d="M445.096 1159.48V1022.93H398.043C348.023 1022.93 311.568 1010.9 288.677 986.856C265.786 963.667 254.341 925.877 254.341 873.487V763.984C254.341 744.23 253.069 725.765 250.526 708.588C248.83 690.552 244.591 673.804 237.809 658.345C231.026 642.886 221.277 628.715 208.559 615.832C195.842 602.09 178.886 590.066 157.691 579.76C178.886 569.454 195.842 557.859 208.559 544.977C221.277 531.235 231.026 516.634 237.809 501.175C244.591 485.716 248.83 468.968 250.526 450.932C253.069 432.896 254.341 414.431 254.341 395.536V286.033C254.341 233.643 265.786 195.853 288.677 172.664C311.568 148.616 348.023 136.593 398.043 136.593H445.096V0.0351562H359.892C272.569 0.0351562 207.712 21.5065 165.322 64.449C122.931 107.392 101.736 173.094 101.736 261.555V378.789C101.736 425.167 91.9866 458.233 72.4871 477.986C53.8355 496.881 29.6731 508.475 0 512.77V646.75C29.6731 651.045 53.8355 663.069 72.4871 682.822C91.9866 702.576 101.736 735.642 101.736 782.02V897.965C101.736 986.426 122.931 1052.13 165.322 1095.07C207.712 1138.01 272.569 1159.48 359.892 1159.48H445.096Z" fill="white"/>
<path d="M749.531 1159.48H909.765L510.45 0.0351562H350.215L749.531 1159.48Z" fill="white"/>
<path d="M795.56 1159.48H948.165L1355.11 0.0351562H1202.51L795.56 1159.48Z" fill="white"/>
<path d="M1259.98 0.0351562V136.593H1307.03C1357.05 136.593 1393.51 148.616 1416.4 172.664C1439.29 195.853 1450.74 233.643 1450.74 286.033V395.536C1450.74 415.29 1451.58 434.185 1453.28 452.221C1455.82 469.398 1460.49 485.716 1467.27 501.175C1474.05 516.634 1483.8 531.235 1496.52 544.977C1509.23 557.859 1526.19 569.454 1547.39 579.76C1526.19 590.066 1509.23 602.09 1496.52 615.832C1483.8 628.715 1474.05 642.886 1467.27 658.345C1460.49 673.804 1455.82 690.552 1453.28 708.588C1451.58 726.624 1450.74 745.089 1450.74 763.984V873.487C1450.74 925.877 1439.29 963.667 1416.4 986.856C1393.51 1010.9 1357.05 1022.93 1307.03 1022.93H1259.98V1159.48H1345.18C1432.51 1159.48 1497.37 1138.01 1539.76 1095.07C1582.15 1052.13 1603.34 986.426 1603.34 897.965V780.731C1603.34 734.353 1612.67 701.717 1631.32 682.822C1650.82 663.069 1675.4 651.045 1705.08 646.75V512.77C1675.4 508.475 1650.82 496.451 1631.32 476.698C1612.67 456.944 1603.34 423.878 1603.34 377.5V261.555C1603.34 173.094 1582.15 107.392 1539.76 64.449C1497.37 21.5065 1432.51 0.0351562 1345.18 0.0351562H1259.98Z" fill="white"/>
<path d="M50.249 1436.22L144.304 1697.82H206.513L300.321 1436.22H237.865C216.216 1499.43 175.532 1630.66 175.532 1630.66C175.532 1630.66 135.082 1500.01 113.693 1436.22H50.249Z" fill="white"/>
<path d="M296.263 1569.49C296.263 1610.62 307.948 1643.51 331.318 1668.15C354.687 1692.79 385.71 1705.11 424.385 1705.11C463.225 1705.11 494.247 1692.79 517.452 1668.15C540.822 1643.51 552.507 1610.62 552.507 1569.49V1562.98C552.507 1522.55 540.822 1489.93 517.452 1465.11C494.247 1440.29 463.225 1427.89 424.385 1427.89C385.874 1427.89 354.852 1440.29 331.318 1465.11C307.948 1489.93 296.263 1522.55 296.263 1562.98V1569.49ZM361.682 1561.68C361.682 1537.04 367.031 1517.69 377.728 1503.63C388.59 1489.4 404.142 1482.29 424.385 1482.29C444.792 1482.29 460.345 1489.4 471.042 1503.63C481.74 1517.69 487.088 1537.04 487.088 1561.68V1571.31C487.088 1596.48 481.74 1616.17 471.042 1630.4C460.345 1644.46 444.792 1651.49 424.385 1651.49C404.142 1651.49 388.59 1644.46 377.728 1630.4C367.031 1616.35 361.682 1596.65 361.682 1571.31V1561.68Z" fill="white"/>
<path d="M587.453 1697.82H651.884V1525.24C656.986 1513.79 664.557 1504.24 674.596 1496.61C684.799 1488.97 696.402 1485.15 709.403 1485.15C722.405 1485.15 732.362 1489.49 739.274 1498.17C746.351 1506.67 749.889 1519.43 749.889 1536.43V1697.82H814.32V1528.88C814.32 1493.83 806.997 1468.41 792.349 1452.61C777.702 1436.82 757.953 1428.93 733.102 1428.93C713.518 1428.93 696.567 1433.09 682.248 1441.42C667.93 1449.58 657.562 1459.73 651.144 1471.88H650.897L650.65 1436.22H587.453V1697.82Z" fill="white"/>
<path d="M862.103 1697.82H926.534V1525.24C931.636 1513.79 939.207 1504.24 949.246 1496.61C959.449 1488.97 971.052 1485.15 984.054 1485.15C997.055 1485.15 1007.01 1489.49 1013.92 1498.17C1021 1506.67 1024.54 1519.43 1024.54 1536.43V1697.82H1088.97V1528.88C1088.97 1493.83 1081.65 1468.41 1067 1452.61C1052.35 1436.82 1032.6 1428.93 1007.75 1428.93C988.168 1428.93 971.217 1433.09 956.899 1441.42C942.581 1449.58 932.212 1459.73 925.794 1471.88H925.547L925.3 1436.22H862.103V1697.82Z" fill="white"/>
<path d="M1133.05 1608.28C1133.05 1641.25 1140.29 1665.63 1154.77 1681.42C1169.26 1697.04 1188.92 1704.85 1213.77 1704.85C1233.52 1704.85 1250.47 1700.69 1264.63 1692.36C1278.95 1683.85 1289.31 1673.7 1295.73 1661.9H1295.98L1296.47 1697.82H1359.42V1436.22H1294.99V1609.06C1289.73 1620.34 1282.16 1629.97 1272.28 1637.95C1262.41 1645.76 1250.64 1649.67 1236.98 1649.67C1224.14 1649.67 1214.35 1645.59 1207.6 1637.43C1200.86 1629.1 1197.48 1615.83 1197.48 1597.61V1436.22H1133.05V1608.28Z" fill="white"/>
<path d="M1395.85 1569.23C1395.85 1610.88 1407.12 1643.94 1429.67 1668.41C1452.38 1692.88 1483.65 1705.11 1523.48 1705.11C1554.58 1705.11 1579.43 1699.56 1598.03 1688.45C1616.63 1677.17 1629.71 1663.03 1637.28 1646.02L1587.66 1623.64C1581.9 1631.27 1573.84 1638.04 1563.47 1643.94C1553.1 1649.84 1539.36 1652.79 1522.24 1652.79C1501.51 1652.79 1485.79 1645.5 1475.09 1630.92C1464.4 1616.35 1459.05 1596.39 1459.05 1571.05V1558.04C1459.05 1534.96 1464.15 1516.22 1474.35 1501.81C1484.72 1487.41 1499.62 1480.21 1519.04 1480.21C1542.41 1480.21 1557.79 1486.37 1565.2 1498.69C1572.77 1511.01 1576.55 1526.37 1576.55 1544.76V1540.08H1430.66V1582.25H1639.5V1558.82C1639.67 1518.56 1629.47 1486.71 1608.89 1463.29C1588.32 1439.69 1559.19 1427.89 1521.5 1427.89C1483.65 1427.89 1453.21 1440.29 1430.16 1465.11C1407.29 1489.75 1395.85 1522.38 1395.85 1562.98V1569.23Z" fill="white"/>
</svg>
